<?xml version="1.0" standalone="no"?>
<!DOCTYPE svg PUBLIC "-//W3C//DTD SVG 20010904//EN"
 "http://www.w3.org/TR/2001/REC-SVG-20010904/DTD/svg10.dtd">
<svg version="1.0" xmlns="http://www.w3.org/2000/svg"
 width="577.000000pt" height="577.000000pt" viewBox="0 0 577.000000 577.000000"
 preserveAspectRatio="xMidYMid meet">
<metadata>
Created by potrace 1.14, written by Peter Selinger 2001-2017
</metadata>
<g transform="translate(0.000000,577.000000) scale(0.100000,-0.100000)"
fill="#000000" stroke="none">
<path d="M2980 4296 c0 -13 -6 -16 -27 -13 -16 2 -35 7 -43 10 -21 9 -53 3
-58 -11 -2 -7 -16 -12 -32 -12 -31 0 -60 -22 -60 -46 0 -8 -4 -13 -9 -10 -5 4
-20 -7 -34 -23 -14 -17 -27 -28 -30 -25 -8 8 -69 -95 -62 -106 4 -6 1 -9 -7
-8 -9 2 -12 -6 -11 -25 1 -17 -6 -38 -18 -50 -11 -12 -17 -27 -15 -34 3 -7 1
-15 -5 -19 -6 -3 -21 -31 -35 -62 -34 -76 -42 -237 -19 -352 11 -53 14 -96 9
-127 -10 -63 -9 -134 3 -211 5 -34 9 -87 9 -117 -1 -30 3 -55 8 -55 4 0 2 -7
-5 -17 -11 -13 -11 -17 -1 -20 6 -3 10 -8 8 -12 -11 -17 -14 -61 -5 -67 14 -8
0 -26 -14 -17 -7 3 -5 -2 3 -13 24 -30 40 -62 40 -79 0 -8 7 -15 16 -15 8 0
13 -4 9 -9 -3 -5 -1 -12 5 -16 5 -3 10 -11 10 -17 0 -6 -11 -3 -25 6 -33 22
-32 17 7 -19 18 -17 28 -23 23 -15 -4 8 -4 11 0 7 12 -10 15 -37 5 -37 -4 0
-10 -7 -13 -14 -4 -10 -1 -13 8 -10 9 4 12 -3 11 -23 -2 -19 -22 -47 -59 -86
-32 -32 -57 -62 -57 -68 0 -6 -38 -9 -97 -8 -67 2 -118 -3 -162 -14 -60 -16
-153 -60 -176 -82 -44 -43 -162 -236 -196 -320 -9 -22 -26 -65 -39 -95 -12
-30 -37 -100 -56 -154 -18 -54 -44 -116 -58 -136 -43 -65 -133 -254 -139 -291
-3 -20 -27 -80 -54 -135 -27 -54 -55 -115 -63 -134 -7 -19 -29 -60 -49 -90
-58 -91 -76 -130 -80 -172 -1 -5 -4 -7 -9 -7 -50 8 -105 -58 -116 -141 -12
-86 -21 -117 -36 -135 -33 -38 -44 -70 -46 -135 -1 -58 -8 -130 -20 -225 -2
-16 -6 -65 -9 -107 l-5 -78 1375 0 c1299 0 1375 1 1383 18 22 41 46 186 57
336 3 44 7 82 9 85 2 3 7 64 11 136 8 139 16 175 40 175 11 0 15 -12 15 -50 0
-40 8 -64 37 -115 21 -36 40 -65 43 -65 3 0 3 -30 0 -67 -11 -120 -1 -165 47
-220 13 -15 26 -58 38 -128 l18 -105 438 0 439 0 0 198 0 197 -42 84 c-28 55
-61 102 -94 133 -50 49 -51 50 -46 100 4 43 0 60 -31 121 -20 40 -44 104 -53
142 -20 80 -53 162 -85 206 -18 26 -20 38 -14 77 13 78 8 142 -11 142 -6 0
-14 12 -17 28 -4 16 -20 36 -42 50 -30 19 -35 28 -35 59 0 20 -5 65 -11 100
-10 54 -15 66 -40 78 -15 8 -39 25 -52 37 -27 27 -107 132 -107 142 0 3 -18
35 -39 69 -34 53 -48 65 -95 86 -31 13 -56 29 -56 35 0 18 -57 76 -77 77 -10
1 -27 2 -38 3 -11 1 -37 -11 -58 -26 -33 -23 -41 -25 -67 -15 -20 8 -33 22
-41 44 -11 35 -39 56 -67 51 -9 -1 -46 14 -82 33 -36 20 -75 39 -85 43 -23 7
-75 51 -75 62 0 4 -9 28 -21 53 -73 158 -87 177 -143 192 -26 7 -35 13 -26 19
7 4 9 13 6 19 -4 6 -2 11 4 11 6 0 8 4 5 10 -3 5 6 21 20 36 14 14 23 29 20
34 -3 5 4 11 14 15 12 3 18 12 15 20 -3 7 4 23 15 34 11 11 18 27 15 36 -4 8
-2 15 4 15 10 0 34 59 36 90 2 20 29 80 37 80 17 0 67 91 74 135 5 28 10 57
11 65 2 8 6 44 10 80 3 36 18 94 32 130 32 82 35 224 6 340 -3 14 -7 48 -8 76
-1 30 -10 64 -20 80 -29 44 -244 254 -261 254 -8 0 -15 5 -15 10 0 6 -10 10
-23 10 -13 0 -27 4 -32 8 -6 5 -41 19 -80 32 -38 13 -74 29 -78 37 -5 7 -12
11 -17 8 -5 -3 -11 -2 -14 3 -3 5 -24 7 -48 6 -24 -1 -51 2 -61 7 -12 7 -16 6
-15 -2 5 -19 -45 -21 -59 -2 -12 16 -13 16 -13 -1z"/>
</g>
</svg>
